Coordinates
version=1
nRows=11
nColumns=63
inDegrees=yes

Units are S.I. units (second, meters, Newtons, ...)
If the header above contains a line with 'inDegrees', this indicates whether rotational values are in degrees (yes) or radians (no).

endheader
time	pelvis_tilt	pelvis_list	pelvis_rotation	pelvis_tx	pelvis_ty	pelvis_tz	hip_flexion_r	hip_adduction_r	hip_rotation_r	knee_angle_r	knee_angle_r_beta	ankle_angle_r	subtalar_angle_r	mtp_angle_r	hip_flexion_l	hip_adduction_l	hip_rotation_l	knee_angle_l	knee_angle_l_beta	ankle_angle_l	subtalar_angle_l	mtp_angle_l	L5_S1_Flex_Ext	L5_S1_Lat_Bending	L5_S1_axial_rotation	L4_L5_Flex_Ext	L4_L5_Lat_Bending	L4_L5_axial_rotation	L3_L4_Flex_Ext	L3_L4_Lat_Bending	L3_L4_axial_rotation	L2_L3_Flex_Ext	L2_L3_Lat_Bending	L2_L3_axial_rotation	L1_L2_Flex_Ext	L1_L2_Lat_Bending	L1_L2_axial_rotation	L1_T12_Flex_Ext	L1_T12_Lat_Bending	L1_T12_axial_rotation	Abs_r3	Abs_r2	Abs_r1	Abs_t1	Abs_t2	neck_flexion	neck_bending	neck_rotation	arm_flex_r	arm_add_r	arm_rot_r	elbow_flex_r	pro_sup_r	wrist_flex_r	wrist_dev_r	arm_flex_l	arm_add_l	arm_rot_l	elbow_flex_l	pro_sup_l	wrist_flex_l	wrist_dev_l
2.525424	-11.016164	-5.100299	82.614355	0.292100	0.992518	0.269019	7.464484	-9.978368	-4.760759	9.388489	0.163860	28.513370	15.494692	0.000000	8.218181	8.967762	-22.375985	12.945957	0.225950	18.103451	2.221613	0.000000	-0.623101	-1.664244	1.573563	-1.157160	-2.213444	1.671910	-1.023692	-4.046442	1.671910	-0.712142	-4.046442	1.376867	-0.578611	-3.393726	1.278520	-0.356040	-2.577914	1.180172	-4.450745	-18.826259	8.751684	0.000000	0.000000	-2.300167	12.452475	-17.600135	-2.296578	-16.372797	-1.214791	147.369160	88.941297	-5.026071	6.925635	7.155137	-21.619595	59.966956	23.304315	64.304076	-10.825424	-3.612939
2.542373	-11.005753	-4.828819	82.611198	0.292784	0.993101	0.268225	6.791331	-9.910376	-4.600320	8.737316	0.152495	28.183606	15.183050	0.000000	7.796401	8.971641	-22.519737	12.795907	0.223331	18.044491	2.479169	0.000000	-0.615170	-1.677734	1.566069	-1.142431	-2.231386	1.663948	-1.010662	-4.079241	1.663948	-0.703077	-4.079241	1.370310	-0.571247	-3.421234	1.272431	-0.351508	-2.598809	1.174552	-4.394095	-18.978858	8.710006	0.000000	0.000000	-2.792041	12.798453	-17.593877	-1.718569	-16.293510	-0.686701	147.722908	88.779437	-5.137680	7.294407	6.876239	-21.613936	58.985129	23.309126	66.152999	-10.615126	-3.015701
2.559322	-10.961946	-4.535322	82.634405	0.293349	0.993670	0.267390	6.101841	-9.826582	-4.471448	8.122023	0.141756	27.858069	14.874849	0.000000	7.352963	8.965158	-22.525326	12.655322	0.220877	17.981040	2.562943	0.000000	-0.610638	-1.684625	1.555206	-1.134016	-2.240551	1.652406	-1.003217	-4.095997	1.652406	-0.697898	-4.095997	1.360805	-0.567039	-3.435287	1.263605	-0.348919	-2.609484	1.166404	-4.361728	-19.056814	8.649588	0.000000	0.000000	-3.218116	13.147863	-17.511317	-1.235487	-16.195844	-0.130714	147.939139	88.643942	-5.301129	7.622249	6.822716	-21.501972	59.730443	23.052239	66.315693	-10.378295	-2.805234
2.576271	-10.921498	-4.240139	82.722835	0.293821	0.994172	0.266557	5.426196	-9.756798	-4.410055	7.573059	0.132175	27.572094	14.563961	0.000000	6.910985	8.975523	-22.378283	12.519623	0.218509	17.926595	2.535522	0.000000	-0.608123	-1.690693	1.531648	-1.129345	-2.248622	1.627376	-0.999085	-4.110751	1.627376	-0.695024	-4.110751	1.340192	-0.564703	-3.447661	1.244464	-0.347481	-2.618883	1.148736	-4.343761	-19.125456	8.518565	0.000000	0.000000	-3.575313	13.487759	-17.416430	-0.843797	-16.066764	0.483185	148.016282	88.538249	-5.530139	7.939871	6.708791	-21.480328	59.728267	22.917457	67.104057	-10.287270	-2.430791
2.593220	-10.884532	-3.944138	82.853577	0.294285	0.994611	0.265740	4.773855	-9.695842	-4.345468	7.100945	0.123935	27.320875	14.194181	0.000000	6.484809	8.974006	-22.317165	12.422215	0.216809	17.975722	2.729990	0.000000	-0.607353	-1.696757	1.506816	-1.127916	-2.256686	1.600992	-0.997821	-4.125494	1.600992	-0.694144	-4.125494	1.318464	-0.563988	-3.460026	1.224288	-0.347042	-2.628276	1.130112	-4.338265	-19.194051	8.380461	0.000000	0.000000	-3.903695	13.819774	-17.339722	-0.559127	-15.911460	1.131253	147.939332	88.557498	-5.757354	8.165821	6.595710	-21.660088	58.087463	23.109028	69.083656	-10.548710	-1.872066
2.610169	-10.827697	-3.653692	83.049865	0.294559	0.995016	0.264905	4.143058	-9.631043	-4.394479	6.709572	0.117104	27.111723	13.883566	0.000000	6.055505	8.987701	-21.946244	12.299485	0.214667	17.992887	2.618741	0.000000	-0.607591	-1.698250	1.485661	-1.128357	-2.258673	1.578515	-0.998211	-4.129126	1.578515	-0.694416	-4.129126	1.299954	-0.564209	-3.463072	1.207100	-0.347177	-2.630590	1.114246	-4.339962	-19.210949	8.262804	0.000000	0.000000	-4.251823	14.087465	-17.329325	-0.407435	-15.772106	1.772962	147.752279	88.807972	-5.994945	8.393454	6.705309	-21.666186	58.584801	22.941027	69.048352	-10.616532	-1.543332
2.627119	-10.758704	-3.395063	83.330819	0.294627	0.995361	0.264049	3.570899	-9.571525	-4.585119	6.425987	0.112155	26.955961	13.632114	0.000000	5.657132	9.018797	-21.249030	12.166280	0.212342	17.983730	2.212763	0.000000	-0.604804	-1.696436	1.469079	-1.123181	-2.256260	1.560896	-0.993632	-4.124714	1.560896	-0.691230	-4.124714	1.285444	-0.561621	-3.459372	1.193627	-0.345585	-2.627779	1.101809	-4.320054	-19.190422	8.170577	0.000000	0.000000	-4.648544	14.303156	-17.396542	-0.389263	-15.654926	2.405670	147.467613	89.278423	-6.228966	8.679443	7.021901	-21.521829	61.042762	22.463730	67.112494	-10.532373	-1.477453
2.644068	-10.674587	-3.148883	83.675711	0.294537	0.995688	0.263098	3.013236	-9.507781	-4.878357	6.197975	0.108175	26.839480	13.448423	0.000000	5.253795	9.066078	-20.255145	11.998816	0.209419	17.939601	1.518276	0.000000	-0.600999	-1.691612	1.464309	-1.116115	-2.249844	1.555828	-0.987381	-4.112986	1.555828	-0.686882	-4.112986	1.281270	-0.558088	-3.449536	1.189751	-0.343411	-2.620307	1.098232	-4.292876	-19.135856	8.144046	0.000000	0.000000	-5.121833	14.444933	-17.594204	-0.504220	-15.550498	3.025468	147.101714	89.713337	-6.453424	9.105523	7.529869	-21.245510	65.237920	21.724394	63.448301	-10.294992	-1.624894
2.661017	-10.577660	-2.935646	84.090809	0.294267	0.995978	0.262056	2.512006	-9.444783	-5.305096	6.066154	0.105874	26.789686	13.339658	0.000000	4.881198	9.120047	-19.023797	11.830950	0.206489	17.881182	0.601328	0.000000	-0.592527	-1.684067	1.466595	-1.100381	-2.239809	1.558257	-0.973462	-4.094641	1.558257	-0.677199	-4.094641	1.283271	-0.550220	-3.434150	1.191609	-0.338570	-2.608620	1.099946	-4.232358	-19.050503	8.156762	0.000000	0.000000	-5.674465	14.535224	-17.893364	-0.727622	-15.467870	3.664549	146.638861	89.648445	-6.620858	9.662346	8.193680	-20.860229	70.960600	20.764033	58.203635	-9.947791	-2.018408
2.677966	-10.478013	-2.747488	84.576196	0.293899	0.996239	0.260899	2.038034	-9.379779	-5.813893	5.985519	0.104467	26.803678	13.271622	0.000000	4.528020	9.164856	-17.749808	11.673878	0.203748	17.846729	-0.262857	0.000000	-0.581094	-1.676381	1.467714	-1.079149	-2.229587	1.559447	-0.954679	-4.075954	1.559447	-0.664132	-4.075954	1.284250	-0.539604	-3.418477	1.192518	-0.332037	-2.596715	1.100786	-4.150695	-18.963561	8.162987	0.000000	0.000000	-6.248026	14.600866	-18.269439	-1.021404	-15.372969	4.390936	146.110779	88.932300	-6.810191	10.412938	8.762439	-20.410554	76.596006	19.777490	53.120807	-9.429140	-2.292702
2.694915	-10.370798	-2.594307	85.114633	0.293424	0.996472	0.259620	1.604211	-9.309883	-6.397914	5.950272	0.103852	26.886811	13.262638	0.000000	4.205719	9.204490	-16.390730	11.522172	0.201100	17.799945	-1.191581	0.000000	-0.564275	-1.667137	1.468887	-1.047916	-2.217292	1.560692	-0.927048	-4.053476	1.560692	-0.644910	-4.053476	1.285276	-0.523986	-3.399625	1.193470	-0.322427	-2.582394	1.101665	-4.030562	-18.858982	8.169506	0.000000	0.000000	-6.812028	14.636197	-18.687435	-1.393037	-15.252064	5.173131	145.521816	87.666089	-6.956407	11.384016	9.347885	-19.901957	82.839427	18.696699	47.447955	-8.817074	-2.661661
